<!-- icon666.com - MILLIONS vector ICONS FREE --><svg fill="none" viewBox="0 0 24 24" xmlns="http://www.w3.org/2000/svg"><g fill="rgb(0,0,0)"><path d="m11.2328 3.80354c.1787-.07139.3779-.07139.5566 0l10.5111 4.2c.2849.11383.4717.38968.4717.69646s-.1868.58263-.4717.69646l-10.5111 4.20004c-.1787.0713-.3779.0713-.5566 0l-10.511089-4.20004c-.284878-.11383-.471711-.38968-.471711-.69646s.186833-.58263.471711-.69646zm-8.21152 4.89646 8.48982 3.3923 8.4898-3.3923-8.4898-3.39234z" fill="rgb(0,0,0)" style="fill: rgb(255, 255, 255);"></path><path d="m22.0222 8.00505c.4142 0 .75.33579.75.75v4.61155c0 .4143-.3358.75-.75.75s-.75-.3357-.75-.75v-4.61155c0-.41421.3358-.75.75-.75z" fill="rgb(0,0,0)" style="fill: rgb(255, 255, 255);"></path><path d="m5.77775 10.1627c.41421 0 .75.3357.75.75v5.8848c.04294.0362.09174.0764.14617.1199.25433.2033.62849.477 1.09946.751.94773.5512 2.24982 1.0816 3.73772 1.0816s2.79-.5304 3.7377-1.0816c.471-.274.8451-.5477 1.0995-.751.0544-.0435.1032-.0837.1461-.1199v-5.8848c0-.4143.3358-.75.75-.75.4143 0 .75.3357.75.75v6.2207c0 .201-.0806.3935-.2239.5345l-.5261-.5345c.5261.5345.5261.5345.5261.5345l-.0019.0019-.0028.0027-.0082.008-.0271.0257c-.0227.0214-.0547.0509-.0956.0876-.0817.0731-.1993.1747-.3499.2951-.3006.2404-.7357.5583-1.282.8761-1.0869.6321-2.6515 1.285-4.4919 1.285-1.84039 0-3.40499-.6529-4.49185-1.285-.54634-.3178-.98146-.6357-1.28209-.8761-.15058-.1204-.26818-.222-.3499-.2951-.04089-.0367-.07286-.0662-.09556-.0876l-.02706-.0257-.00825-.008-.00279-.0027-.00106-.001s-.00084-.0009.52521-.5354l-.52605.5345c-.14327-.141-.22395-.3335-.22395-.5345v-6.2207c0-.4143.33579-.75.75-.75z" fill="rgb(0,0,0)" style="fill: rgb(255, 255, 255);"></path></g></svg>