<svg width="294" height="265" viewBox="0 0 294 265" fill="none" xmlns="http://www.w3.org/2000/svg">
<g clip-path="url(#clip0_1_43)">
<rect width="294" height="265" fill="white"/>
<rect width="410" height="370" fill="#1A1919"/>
<path d="M74.5278 201.404H82.4328V205H70.0328V184.292H74.5278V201.404ZM113.622 204.473C112.568 205.052 111.411 205.341 110.15 205.341C108.91 205.341 107.99 204.866 107.391 203.915C106.192 204.907 104.787 205.403 103.175 205.403C101.563 205.403 100.344 205 99.5169 204.194C98.6902 203.367 98.2769 202.251 98.2769 200.846C98.2769 199.916 98.4732 199.12 98.8659 198.459C99.2586 197.798 99.7649 197.312 100.385 197.002C101.522 196.465 102.7 196.196 103.919 196.196C105.159 196.196 106.151 196.227 106.895 196.289V194.77C106.895 193.695 106.678 193.003 106.244 192.693C105.81 192.383 105.066 192.228 104.012 192.228C102.979 192.228 101.811 192.445 100.509 192.879L99.6099 190.151C100.375 189.696 101.305 189.355 102.4 189.128C103.516 188.88 104.467 188.756 105.252 188.756C107.36 188.756 108.858 189.211 109.747 190.12C110.656 191.009 111.111 192.538 111.111 194.708V201.218C111.111 201.797 111.369 202.086 111.886 202.086C112.155 202.086 112.537 202.024 113.033 201.9L113.622 204.473ZM104.353 202.52C105.221 202.52 106.068 202.251 106.895 201.714V198.459C106.316 198.418 105.81 198.397 105.376 198.397C103.33 198.397 102.307 199.058 102.307 200.381C102.307 201.807 102.989 202.52 104.353 202.52ZM122.977 192.29C121.282 192.29 120.094 192.776 119.412 193.747V205H115.072V189.097H118.668L119.009 191.112C120.207 189.541 121.737 188.756 123.597 188.756C124.113 188.756 124.589 188.808 125.023 188.911L124.31 192.476C123.855 192.352 123.411 192.29 122.977 192.29ZM135.84 188.818C137.638 188.818 138.858 189.283 139.498 190.213C140.16 191.122 140.49 192.424 140.49 194.119V205H136.15V194.894C136.15 194.088 136.016 193.468 135.747 193.034C135.499 192.579 134.879 192.352 133.887 192.352C132.895 192.352 131.996 192.734 131.19 193.499V205H126.757V189.097H130.415L130.787 190.864C131.387 190.306 132.141 189.831 133.05 189.438C133.98 189.025 134.91 188.818 135.84 188.818ZM153.896 205.403C152.863 205.403 151.726 205.269 150.486 205C149.246 204.731 148.233 204.39 147.448 203.977L149.184 200.288C150.92 201.156 152.697 201.59 154.516 201.59C156.335 201.59 157.358 200.846 157.585 199.358C157.606 199.234 157.616 199.11 157.616 198.986C157.616 198.407 157.358 197.891 156.841 197.436C156.345 196.961 155.591 196.475 154.578 195.979C153.565 195.462 152.842 195.07 152.408 194.801C151.995 194.532 151.54 194.15 151.044 193.654C150.569 193.158 150.279 192.662 150.176 192.166C150.073 191.649 150.021 191.195 150.021 190.802C150.021 188.467 150.899 186.669 152.656 185.408C154.061 184.395 155.684 183.889 157.523 183.889C159.383 183.889 161.315 184.282 163.32 185.067L161.553 188.446C159.982 187.847 158.587 187.547 157.368 187.547C155.653 187.547 154.671 188.229 154.423 189.593C154.34 190.151 154.464 190.575 154.795 190.864C155.126 191.153 155.363 191.35 155.508 191.453C155.653 191.556 155.952 191.742 156.407 192.011C156.882 192.259 157.316 192.507 157.709 192.755C158.102 192.982 158.463 193.21 158.794 193.437C159.125 193.644 159.548 193.974 160.065 194.429C160.602 194.884 160.995 195.307 161.243 195.7C161.739 196.527 161.987 197.426 161.987 198.397C161.987 198.666 161.966 198.934 161.925 199.203C161.636 201.042 160.757 202.541 159.29 203.698C157.843 204.835 156.045 205.403 153.896 205.403ZM169.242 205H164.902V183.331L169.242 183.021V195.917L174.512 189.128H179.224L173.489 196.289L180.433 205H175.473L169.242 196.909V205ZM197.756 204.721C196.702 205.176 195.679 205.403 194.687 205.403C193.695 205.403 192.878 205.289 192.238 205.062C191.597 204.835 191.111 204.576 190.781 204.287C190.471 203.998 190.233 203.574 190.068 203.016C189.902 202.458 189.799 201.993 189.758 201.621C189.737 201.228 189.727 200.691 189.727 200.009V183.3H194.098V200.257C194.098 200.856 194.18 201.28 194.346 201.528C194.532 201.776 194.893 201.9 195.431 201.9C195.968 201.9 196.526 201.828 197.105 201.683L197.756 204.721ZM207.322 204.721C206.268 205.176 205.245 205.403 204.253 205.403C203.261 205.403 202.445 205.289 201.804 205.062C201.163 204.835 200.678 204.576 200.347 204.287C200.037 203.998 199.799 203.574 199.634 203.016C199.469 202.458 199.365 201.993 199.324 201.621C199.303 201.228 199.293 200.691 199.293 200.009V183.3H203.664V200.257C203.664 200.856 203.747 201.28 203.912 201.528C204.098 201.776 204.46 201.9 204.997 201.9C205.534 201.9 206.092 201.828 206.671 201.683L207.322 204.721ZM214.532 192.166C213.127 192.166 212.424 192.631 212.424 193.561C212.424 194.057 212.662 194.481 213.137 194.832C213.613 195.183 214.181 195.493 214.842 195.762C215.524 196.01 216.196 196.299 216.857 196.63C217.539 196.94 218.118 197.395 218.593 197.994C219.069 198.593 219.306 199.327 219.306 200.195C219.306 201.745 218.779 203.006 217.725 203.977C216.671 204.928 215.121 205.403 213.075 205.403C212.145 205.403 211.164 205.3 210.13 205.093C209.118 204.886 208.374 204.649 207.898 204.38L208.952 201.28C210.564 201.817 212.011 202.086 213.292 202.086C214.594 202.086 215.245 201.58 215.245 200.567C215.245 200.133 215.008 199.74 214.532 199.389C214.057 199.038 213.478 198.717 212.796 198.428C212.135 198.118 211.463 197.787 210.781 197.436C210.12 197.085 209.552 196.589 209.076 195.948C208.601 195.307 208.363 194.563 208.363 193.716C208.363 192.125 208.89 190.905 209.944 190.058C210.998 189.211 212.507 188.787 214.47 188.787C216.434 188.787 217.973 189.107 219.089 189.748L218.066 192.817C216.64 192.383 215.462 192.166 214.532 192.166Z" fill="white"/>
<path d="M87.8154 197.498C87.8567 200.598 89.2207 202.148 91.9074 202.148C93.1681 202.148 94.4184 201.91 95.6584 201.435L96.4024 204.38C94.8111 205.062 93.0441 205.403 91.1014 205.403C86.2034 205.403 83.7544 202.52 83.7544 196.754C83.7544 194.481 84.3641 192.59 85.5834 191.081C86.8027 189.572 88.5594 188.818 90.8534 188.818C92.6927 188.818 94.1084 189.314 95.1004 190.306C96.1131 191.277 96.6194 192.641 96.6194 194.398C96.6194 195.431 96.4851 196.465 96.2164 197.498H87.8154ZM93.1474 195.142V194.956C93.1474 192.91 92.4241 191.887 90.9774 191.887C89.2414 191.887 88.1977 192.972 87.8464 195.142H93.1474Z" fill="#3D96FF"/>
<path d="M186.407 205H182.067V189.128L186.407 188.756V205ZM181.664 184.013C181.664 183.31 181.912 182.711 182.408 182.215C182.904 181.719 183.503 181.471 184.206 181.471C184.908 181.471 185.508 181.719 186.004 182.215C186.5 182.711 186.748 183.31 186.748 184.013C186.748 184.695 186.5 185.294 186.004 185.811C185.508 186.328 184.908 186.586 184.206 186.586C183.503 186.586 182.904 186.338 182.408 185.842C181.912 185.325 181.664 184.716 181.664 184.013Z" fill="#FF8E3D"/>
<path d="M91.588 159.688H125.248V175H72.448V86.824H91.588V159.688ZM184.492 176.716C180.092 176.716 175.252 176.144 169.972 175C164.692 173.856 160.38 172.404 157.036 170.644L164.428 154.936C171.82 158.632 179.388 160.48 187.132 160.48C194.876 160.48 199.232 157.312 200.2 150.976C200.288 150.448 200.332 149.92 200.332 149.392C200.332 146.928 199.232 144.728 197.032 142.792C194.92 140.768 191.708 138.7 187.396 136.588C183.084 134.388 180.004 132.716 178.156 131.572C176.396 130.428 174.46 128.8 172.348 126.688C170.324 124.576 169.092 122.464 168.652 120.352C168.212 118.152 167.992 116.216 167.992 114.544C167.992 104.6 171.732 96.944 179.212 91.576C185.196 87.264 192.104 85.108 199.936 85.108C207.856 85.108 216.084 86.78 224.62 90.124L217.096 104.512C210.408 101.96 204.468 100.684 199.276 100.684C191.972 100.684 187.792 103.588 186.736 109.396C186.384 111.772 186.912 113.576 188.32 114.808C189.728 116.04 190.74 116.876 191.356 117.316C191.972 117.756 193.248 118.548 195.184 119.692C197.208 120.748 199.056 121.804 200.728 122.86C202.4 123.828 203.94 124.796 205.348 125.764C206.756 126.644 208.56 128.052 210.76 129.988C213.048 131.924 214.72 133.728 215.776 135.4C217.888 138.92 218.944 142.748 218.944 146.884C218.944 148.028 218.856 149.172 218.68 150.316C217.448 158.148 213.708 164.528 207.46 169.456C201.3 174.296 193.644 176.716 184.492 176.716Z" fill="white"/>
<path d="M131.668 164.968C131.668 161.976 132.724 159.424 134.836 157.312C136.948 155.2 139.5 154.144 142.492 154.144C145.484 154.144 148.036 155.2 150.148 157.312C152.26 159.424 153.316 161.976 153.316 164.968C153.316 167.872 152.26 170.424 150.148 172.624C148.036 174.824 145.484 175.924 142.492 175.924C139.5 175.924 136.948 174.868 134.836 172.756C132.724 170.556 131.668 167.96 131.668 164.968Z" fill="#FF8E3D"/>
</g>
<defs>
<clipPath id="clip0_1_43">
<rect width="294" height="265" fill="white"/>
</clipPath>
</defs>
</svg>
