<!-- icon666.com - MILLIONS vector ICONS FREE --><svg viewBox="0 0 24 24" xmlns="http://www.w3.org/2000/svg"><g id="Layer_1" data-name="Layer 1"><path d="m12 1a11 11 0 1 0 11 11 11 11 0 0 0 -11-11zm0 21a10 10 0 1 1 10-10 10.011 10.011 0 0 1 -10 10z" fill="#000000" style="fill: rgb(255, 255, 255);"></path><path d="m12 16.5a.5.5 0 0 1 -.5-.5v-11a.5.5 0 0 1 1 0v11a.5.5 0 0 1 -.5.5z" fill="#000000" style="fill: rgb(255, 255, 255);"></path><circle cx="12" cy="18.5" r=".5" fill="#000000" style="fill: rgb(255, 255, 255);"></circle></g></svg>