<!-- icon666.com - MILLIONS vector ICONS FREE --><svg id="Layer_2" viewBox="0 0 64 64" xmlns="http://www.w3.org/2000/svg" data-name="Layer 2"><g id="_10-Certificate" data-name="10-Certificate"><path d="m48.662 17.506a5.313 5.313 0 0 1 -1.953-4.714 5.312 5.312 0 0 0 -5.855-5.855 5.31 5.31 0 0 1 -4.714-1.953 5.312 5.312 0 0 0 -8.28 0 5.312 5.312 0 0 1 -4.715 1.953 5.312 5.312 0 0 0 -5.855 5.855 5.312 5.312 0 0 1 -1.952 4.714 5.311 5.311 0 0 0 0 8.28 5.314 5.314 0 0 1 1.952 4.714 5.312 5.312 0 0 0 5.855 5.855 5.312 5.312 0 0 1 4.715 1.953 5.312 5.312 0 0 0 8.28 0 5.31 5.31 0 0 1 4.714-1.953 5.312 5.312 0 0 0 5.855-5.855 5.315 5.315 0 0 1 1.953-4.715 5.311 5.311 0 0 0 0-8.279zm-16.662 10.787a6.647 6.647 0 1 1 6.646-6.646 6.655 6.655 0 0 1 -6.646 6.646z" fill="#4370ff" style="fill: rgb(28, 27, 27);"></path><path d="m32 13a8.647 8.647 0 1 0 8.646 8.647 8.657 8.657 0 0 0 -8.646-8.647zm0 13.293a4.647 4.647 0 1 1 4.646-4.646 4.651 4.651 0 0 1 -4.646 4.646z" fill="#000000" style="fill: rgb(255, 255, 255);"></path><path d="m57.222 53.76-10.377-17.793a7.276 7.276 0 0 0 1.85-5.683 3.3 3.3 0 0 1 1.216-2.939 7.312 7.312 0 0 0 0-11.4 3.3 3.3 0 0 1 -1.216-2.94 7.31 7.31 0 0 0 -8.058-8.058 3.3 3.3 0 0 1 -2.937-1.216 7.308 7.308 0 0 0 -11.394 0 3.3 3.3 0 0 1 -2.94 1.218 7.31 7.31 0 0 0 -8.057 8.059 3.3 3.3 0 0 1 -1.217 2.94 7.312 7.312 0 0 0 0 11.4 3.3 3.3 0 0 1 1.218 2.94 7.31 7.31 0 0 0 8.057 8.059 3.288 3.288 0 0 1 2.94 1.218 7.309 7.309 0 0 0 2.22 1.842l-8.437 14.456-1.055-3.9a2 2 0 0 0 -2.443-1.411l-3.921 1.04 5.816-9.973a11.234 11.234 0 0 1 -3.41-2.091l-8.299 14.232a2 2 0 0 0 2.239 2.94l6.683-1.77 1.784 6.592a2 2 0 0 0 3.657.486l11.514-19.752a7.266 7.266 0 0 0 5.045-2.694 3.3 3.3 0 0 1 2.939-1.218 7.288 7.288 0 0 0 2.819-.252l7.874 13.5-3.921-1.04a2 2 0 0 0 -2.443 1.411l-1.055 3.9-6.417-11a11.224 11.224 0 0 1 -3.87 1.3l9.241 15.845a2 2 0 0 0 3.657-.486l1.784-6.592 6.674 1.77a2 2 0 0 0 2.24-2.94zm-12.5-23.043a3.311 3.311 0 0 1 -3.651 3.65 7.3 7.3 0 0 0 -6.488 2.689 3.31 3.31 0 0 1 -5.161 0 7.279 7.279 0 0 0 -6.488-2.688 3.311 3.311 0 0 1 -3.649-3.651 7.285 7.285 0 0 0 -2.688-6.489 3.31 3.31 0 0 1 0-5.162 7.285 7.285 0 0 0 2.687-6.49 3.311 3.311 0 0 1 3.65-3.65 7.269 7.269 0 0 0 6.487-2.688 3.31 3.31 0 0 1 5.161 0 7.287 7.287 0 0 0 6.488 2.688 3.312 3.312 0 0 1 3.651 3.65 7.284 7.284 0 0 0 2.686 6.49 3.311 3.311 0 0 1 0 5.163 7.282 7.282 0 0 0 -2.688 6.488z" fill="#000000" style="fill: rgb(255, 255, 255);"></path></g></svg>