<!-- icon666.com - MILLIONS vector ICONS FREE --><svg id="Layer_1" enable-background="new 0 0 500 500" viewBox="0 0 500 500" xmlns="http://www.w3.org/2000/svg"><path d="m250 500c-66.777 0-129.558-26.005-176.777-73.224s-73.223-109.999-73.223-176.776 26.004-129.558 73.223-176.776 110-73.224 176.777-73.224c24.689 0 49.08 3.592 72.495 10.677l11.486 3.475-6.95 22.972-11.486-3.476c-21.16-6.402-43.212-9.648-65.545-9.648-124.617 0-226 101.383-226 226s101.383 226 226 226 226-101.383 226-226c0-69.27-31.126-133.765-85.396-176.949l-9.39-7.472 14.943-18.779 9.39 7.472c60.026 47.763 94.453 119.103 94.453 195.728 0 66.777-26.004 129.558-73.223 176.776s-110 73.224-176.777 73.224z" fill="#000000" style="fill: rgb(255, 255, 255);"></path><path d="m371.54 59.05-10.445-5.907c-2.979-1.686-6.044-3.328-9.111-4.882l-10.704-5.424 10.848-21.408 10.704 5.424c3.392 1.718 6.783 3.535 10.08 5.399l10.445 5.908z" fill="#000000" style="fill: rgb(255, 255, 255);"></path><path d="m305.934 185.013-43.814 35.381v-144.473h-24v144.515l-43.991-35.433-15.054 18.691 71.054 57.231 70.883-57.24z" fill="#000000" style="fill: rgb(255, 255, 255);"></path><path d="m414.984 346.899h-329.882v-101.39h24v77.39h281.882v-77.39h24z" fill="#000000" style="fill: rgb(255, 255, 255);"></path></svg>