<!-- icon666.com - MILLIONS vector ICONS FREE --><svg id="Layer_1" viewBox="0 0 512 512" xmlns="http://www.w3.org/2000/svg" data-name="Layer 1"><path d="m256 0c-141.159 0-256 114.841-256 256s114.841 256 256 256 256-114.841 256-256-114.841-256-256-256zm0 448c-105.869 0-192-86.131-192-192s86.131-192 192-192 192 86.131 192 192-86.131 192-192 192zm100.673-217.9-135.817-98.56a32 32 0 0 0 -50.794 25.9v197.121a32 32 0 0 0 50.794 25.9l135.817-98.561a32 32 0 0 0 0-51.8zm-122.611 61.7v-71.6l49.338 35.8z" fill="#000000" style="fill: rgb(255, 255, 255);"></path></svg>